<?xml version="1.0" standalone="no"?>
<!DOCTYPE svg PUBLIC "-//W3C//DTD SVG 20010904//EN"
 "http://www.w3.org/TR/2001/REC-SVG-20010904/DTD/svg10.dtd">
<svg version="1.0" xmlns="http://www.w3.org/2000/svg"
 width="87.000000pt" height="60.000000pt" viewBox="0 0 87.000000 60.000000"
 preserveAspectRatio="xMidYMid meet">

<g transform="translate(0.000000,60.000000) scale(0.100000,-0.100000)"
fill="#000000" stroke="none">
<path d="M0 300 l0 -300 435 0 435 0 0 300 0 300 -435 0 -435 0 0 -300z m370
145 l0 -45 -95 0 c-95 0 -95 0 -95 -25 0 -25 0 -25 95 -25 l95 0 0 -45 0 -45
-95 0 -95 0 0 -30 0 -30 95 0 95 0 0 -45 0 -45 -145 0 -145 0 0 190 0 190 145
0 145 0 0 -45z m410 -145 l0 -190 -50 0 -50 0 0 145 c0 138 -1 145 -20 145
-19 0 -20 -7 -20 -145 l0 -145 -55 0 -55 0 0 145 c0 138 -1 145 -20 145 -19 0
-20 -7 -20 -145 l0 -145 -40 0 -40 0 0 145 c0 90 -4 145 -10 145 -5 0 -10 20
-10 45 l0 45 195 0 195 0 0 -190z"/>
</g>
</svg>
